# xmcd
#
# Track frame offsets:
#	150
#	17554
#	34062
#	55161
#	76036
#	95430
#	110545
#	127127
#	146624
#	161561
#	177438
#	193472
#	210867
#	228770
#
# Disc length: 3352 seconds
# Revision: 0
# Processed by: cddbd v1.5.2PL0 Copyright (c) Steve Scherf et al.
# Submitted via: dBpowerAMP V12.0
#
DISCID=b60d160e
DTITLE=The Cadillac Kings - Gonna Tell Your Momma
DYEAR=2012
DGENRE=Blues
TTITLE0=Gonna Tell Your Momma
TTITLE1=A Man Needs His Loving
TTITLE2=Somebody
TTITLE3=Ding Dong Daddy
TTITLE4=Sick And Tired
TTITLE5=Zydeco Cadillac
TTITLE6=Just A Matter Of Time
TTITLE7=Mean Old Frisco
TTITLE8=Boogie Hamar
TTITLE9=The Next Big Thing
TTITLE10=Stranded In The Jungle
TTITLE11=Bad Bad Boy
TTITLE12=Eight Ball Jack
TTITLE13=Betty Lou
EXTD=
EXTT0=
EXTT1=
EXTT2=
EXTT3=
EXTT4=
EXTT5=
EXTT6=
EXTT7=
EXTT8=
EXTT9=
EXTT10=
EXTT11=
EXTT12=
EXTT13=
PLAYORDER=
